<svg width="16" height="16" viewBox="0 0 16 16" fill="none" xmlns="http://www.w3.org/2000/svg">
<path d="M8.00001 0.666656C12.0501 0.666656 15.3333 3.9499 15.3333 7.99999C15.3333 12.0501 12.0501 15.3333 8.00001 15.3333C3.94992 15.3333 0.666672 12.0501 0.666672 7.99999C0.666672 3.9499 3.94992 0.666656 8.00001 0.666656ZM6.22513 5.33332H5.18793C5.15257 5.33332 5.11865 5.34737 5.09365 5.37238C5.04158 5.42445 5.04158 5.50887 5.09365 5.56094L7.43303 7.90021L4.89428 10.439C4.86927 10.464 4.85523 10.498 4.85523 10.5333C4.85523 10.607 4.91492 10.6667 4.98856 10.6667H6.02512C6.06047 10.6667 6.09439 10.6526 6.11939 10.6276L8.14003 8.60721L10.1606 10.6276C10.1856 10.6526 10.2195 10.6667 10.2549 10.6667H11.2921C11.3275 10.6667 11.3614 10.6526 11.3864 10.6276C11.4385 10.5755 11.4385 10.4911 11.3864 10.439L8.84736 7.89988L11.1864 5.56094C11.2114 5.53593 11.2255 5.50202 11.2255 5.46666C11.2255 5.39302 11.1658 5.33332 11.0921 5.33332H10.0546C10.0192 5.33332 9.98531 5.34737 9.96031 5.37238L8.14003 7.19288L6.31941 5.37237C6.29441 5.34737 6.2605 5.33332 6.22513 5.33332Z" fill="#CCCCCC"/>
</svg>
