<svg width="24" height="20" viewBox="0 0 24 20" fill="none" xmlns="http://www.w3.org/2000/svg">
<path d="M23.7589 9.64167L13.4935 1.20786C13.0738 0.858447 12.545 0.667114 11.9989 0.667114C11.4528 0.667114 10.924 0.858447 10.5043 1.20786L0.238799 9.64167C0.171656 9.69786 0.11624 9.76673 0.0757144 9.84434C0.0351887 9.92195 0.0103474 10.0068 0.00260907 10.094C-0.0051293 10.1812 0.00438679 10.2691 0.030614 10.3526C0.0568411 10.4362 0.0992657 10.5137 0.155465 10.5808L0.582134 11.0933C0.69561 11.2288 0.858233 11.3137 1.03426 11.3293C1.21029 11.345 1.38532 11.29 1.52089 11.1767L2.66548 10.2367V17.9996C2.66647 18.353 2.80726 18.6915 3.0571 18.9414C3.30694 19.1912 3.6455 19.332 3.99882 19.333H9.33219C9.68551 19.332 10.0241 19.1912 10.2739 18.9414C10.5237 18.6915 10.6645 18.353 10.6655 17.9996V13.6663H13.3322V17.9996C13.3332 18.353 13.474 18.6915 13.7238 18.9414C13.9737 19.1912 14.3122 19.332 14.6656 19.333H19.9989C20.3506 19.3322 20.6878 19.1929 20.9374 18.9452C21.187 18.6974 21.3289 18.3613 21.3323 18.0096V10.2358L22.4794 11.1783C22.6149 11.2917 22.79 11.3466 22.966 11.331C23.142 11.3154 23.3046 11.2305 23.4181 11.095L23.8444 10.5829C23.9008 10.5156 23.9433 10.4378 23.9695 10.354C23.9958 10.2702 24.0052 10.182 23.9973 10.0945C23.9893 10.0071 23.9642 9.92204 23.9233 9.84433C23.8824 9.76661 23.8265 9.69774 23.7589 9.64167ZM19.326 17.333H15.3322V12.9996C15.3312 12.6463 15.1904 12.3077 14.9406 12.0579C14.6908 11.808 14.3522 11.6673 13.9989 11.6663H9.99886C9.64554 11.6673 9.30697 11.808 9.05714 12.0579C8.8073 12.3077 8.66651 12.6463 8.66552 12.9996V17.333H4.66549V8.59416L11.9989 2.56829L19.3323 8.59166L19.326 17.333Z" fill="#231F20"/>
</svg>
