<svg width="16" height="16" viewBox="0 0 16 16" fill="none" xmlns="http://www.w3.org/2000/svg">
<path d="M3.41447 3.3835C5.74488 1.09437 9.52321 1.09437 11.8536 3.3835C14.1053 5.59531 14.1814 9.13494 12.0818 11.4365L14.5698 13.8807C14.6224 13.9323 14.6231 14.0168 14.5715 14.0693C14.571 14.0698 14.5704 14.0704 14.5698 14.071L14.0568 14.5749C14.005 14.6258 13.9218 14.6258 13.87 14.5749L11.3592 12.1083C9.01619 13.9517 5.58645 13.8067 3.41447 11.6732C1.08407 9.38404 1.08407 5.67263 3.41447 3.3835ZM4.11773 4.07431C2.17573 5.98191 2.17573 9.07475 4.11773 10.9824C6.05974 12.89 9.20835 12.89 11.1504 10.9824C13.0924 9.07475 13.0924 5.98191 11.1504 4.07431C9.20835 2.1667 6.05974 2.1667 4.11773 4.07431Z" fill="#8A8184"/>
</svg>
